<svg id="logo" xmlns="http://www.w3.org/2000/svg" viewBox="0 0 90.052 90.052">
  <defs>
    <style>
      .cls-1 {
        fill: #fff;
      }
    </style>
  </defs>
  <path id="Path_203" data-name="Path 203" class="cls-1" d="M196.117,170.433h9.056a1.407,1.407,0,0,0,1.407-1.407V148.64h4.705a1.407,1.407,0,0,0,1.4-1.263l.793-7.7a1.407,1.407,0,0,0-1.4-1.551h-5.5v-3.118c0-.644.2-.692.515-.692h4.869a1.407,1.407,0,0,0,1.407-1.407v-7.475a1.407,1.407,0,0,0-1.4-1.407L205.255,124c-4.705,0-7.216,2.07-8.494,3.807a11.583,11.583,0,0,0-2.051,6.744v3.576h-2.9a1.407,1.407,0,0,0-1.407,1.407v7.7a1.407,1.407,0,0,0,1.407,1.407h2.9v20.386A1.407,1.407,0,0,0,196.117,170.433Zm-2.9-24.607v-4.885h2.9a1.407,1.407,0,0,0,1.407-1.407v-4.983a8.926,8.926,0,0,1,1.5-5.076c1.3-1.765,3.395-2.66,6.222-2.66l5.308.021V131.5H207.1a3.237,3.237,0,0,0-3.329,3.506v4.525a1.407,1.407,0,0,0,1.407,1.407h5.346l-.5,4.885h-4.843a1.407,1.407,0,0,0-1.407,1.407v20.386h-6.242V147.233a1.407,1.407,0,0,0-1.407-1.407Z" transform="translate(-156.914 -102.191)"/>
  <path id="Path_204" data-name="Path 204" class="cls-1" d="M76.864,13.188A45.026,45.026,0,1,0,13.188,76.866,45.026,45.026,0,0,0,76.864,13.188Zm-1.99,61.687a42.212,42.212,0,1,1-59.7-59.7,42.212,42.212,0,0,1,59.7,59.7Z"/>
  <path id="Path_205" data-name="Path 205" class="cls-1" d="M161.346,112.529a1.407,1.407,0,0,0-2.185,1.773,36.585,36.585,0,0,1-52.813,50.3,1.407,1.407,0,0,0-1.877,2.1,39.4,39.4,0,0,0,56.875-54.171Z" transform="translate(-85.71 -92.308)"/>
  <path id="Path_206" data-name="Path 206" class="cls-1" d="M34.814,71.4A36.584,36.584,0,0,1,95.786,44.129a1.407,1.407,0,1,0,1.877-2.1A39.4,39.4,0,0,0,40.788,96.2a1.407,1.407,0,0,0,2.185-1.773A36.662,36.662,0,0,1,34.814,71.4Z" transform="translate(-26.372 -26.372)"/>
</svg>
