<svg xmlns="http://www.w3.org/2000/svg" viewBox="0 0 84.574 84.574">
  <defs>
    <style>
      .cls-1 {
        fill: #6f6f6f;
      }
    </style>
  </defs>
  <g id="idea" transform="translate(-332.426 497.574)">
    <path id="Path_73" data-name="Path 73" class="cls-1" d="M82.922,55.176H80.187a20,20,0,0,0-1.712-4.141L80.406,49.1a1.651,1.651,0,0,0,0-2.336l-5.6-5.6a1.651,1.651,0,0,0-2.336,0l-1.925,1.925A19.973,19.973,0,0,0,66.4,41.372V38.653A1.652,1.652,0,0,0,64.747,37H58.135a26.658,26.658,0,0,0,1.012-7.427A29.574,29.574,0,0,0,29.574,0h-.01A29.609,29.609,0,0,0,0,29.574a24.514,24.514,0,0,0,8.151,18.75A30.16,30.16,0,0,1,17.8,67.1l.006.054V80.279A4.3,4.3,0,0,0,22.1,84.574H37.044a4.3,4.3,0,0,0,4.295-4.295v-5.3l5.428,5.428a1.651,1.651,0,0,0,2.336,0l1.932-1.931a20,20,0,0,0,4.141,1.712v2.735a1.652,1.652,0,0,0,1.652,1.652h7.918A1.652,1.652,0,0,0,66.4,82.922V80.18a19.979,19.979,0,0,0,4.133-1.714l1.94,1.94a1.651,1.651,0,0,0,2.336,0l5.6-5.6a1.651,1.651,0,0,0,0-2.336l-1.94-1.94A20.014,20.014,0,0,0,80.18,66.4h2.742a1.652,1.652,0,0,0,1.652-1.652V56.828A1.652,1.652,0,0,0,82.922,55.176ZM10.387,45.893A21.33,21.33,0,0,1,3.3,29.574,26.3,26.3,0,0,1,29.564,3.3h.01a26.27,26.27,0,0,1,26.27,26.27,21.33,21.33,0,0,1-7.083,16.319,33.535,33.535,0,0,0-10.522,19.52H35.19V61.944a1.652,1.652,0,0,0-3.3,0v3.469H27.261V44.875a1.654,1.654,0,0,0-.059-.439L23.607,31.382l.51.51a1.651,1.651,0,0,0,2.336,0l2.69-2.69,2.69,2.69a1.651,1.651,0,0,0,2.336,0l1.7-1.7L31.946,44.436a1.654,1.654,0,0,0-.059.439v5.137a1.652,1.652,0,1,0,3.3,0V45.1l3.792-13.773.568.567a1.652,1.652,0,0,0,2.336-2.336L38.028,25.7a1.652,1.652,0,0,0-2.336,0L33,28.388l-2.69-2.69a1.651,1.651,0,0,0-2.336,0l-2.69,2.69L22.6,25.7a1.652,1.652,0,0,0-2.336,0L16.4,29.556a1.652,1.652,0,0,0,2.336,2.336l1.242-1.242L23.957,45.1V65.412H20.909A33.534,33.534,0,0,0,10.387,45.893ZM21.112,68.716H38.035v4.625H21.112ZM37.044,81.27H22.1a.992.992,0,0,1-.991-.991V76.645H38.035v3.634A.992.992,0,0,1,37.044,81.27Zm4.295-8.97V67.157l.006-.054c.021-.188.045-.375.07-.562a19.939,19.939,0,0,0,1.679,4.005ZM81.27,63.095H78.9a1.652,1.652,0,0,0-1.614,1.3A16.718,16.718,0,0,1,75,69.9a1.652,1.652,0,0,0,.222,2.062L76.9,73.639,73.639,76.9l-1.681-1.682A1.653,1.653,0,0,0,69.9,75a16.732,16.732,0,0,1-5.5,2.282,1.652,1.652,0,0,0-1.3,1.614V81.27H58.48V78.9a1.651,1.651,0,0,0-1.3-1.614,16.741,16.741,0,0,1-5.511-2.278,1.652,1.652,0,0,0-2.06.222L47.935,76.9l-3.263-3.263,1.667-1.667a1.651,1.651,0,0,0,.221-2.062,16.753,16.753,0,0,1-2.29-5.516,1.652,1.652,0,0,0-1.614-1.3h-.573A30.4,30.4,0,0,1,51,48.324a27.148,27.148,0,0,0,2.741-2.914l.032-.012a16.817,16.817,0,0,1,3.409-1.132,1.652,1.652,0,0,0,1.3-1.614V40.3h4.614v2.352a1.652,1.652,0,0,0,1.3,1.614,16.767,16.767,0,0,1,5.516,2.29,1.651,1.651,0,0,0,2.062-.221l1.667-1.667L76.9,47.935,75.23,49.608a1.651,1.651,0,0,0-.222,2.06,16.754,16.754,0,0,1,2.278,5.511,1.652,1.652,0,0,0,1.614,1.3h2.37Zm0,0" transform="translate(332.426 -497.574)"/>
    <path id="Path_74" data-name="Path 74" class="cls-1" d="M306.224,294a12.224,12.224,0,1,0,12.224,12.224A12.237,12.237,0,0,0,306.224,294Zm0,21.143a8.92,8.92,0,1,1,8.92-8.92A8.93,8.93,0,0,1,306.224,315.143Zm0,0" transform="translate(86.99 -743.01)"/>
    <path id="Path_75" data-name="Path 75" class="cls-1" d="M336.277,330a6.277,6.277,0,1,0,6.277,6.277A6.284,6.284,0,0,0,336.277,330Zm0,9.25a2.973,2.973,0,1,1,2.973-2.973A2.977,2.977,0,0,1,336.277,339.25Zm0,0" transform="translate(56.937 -773.063)"/>
    <path id="Path_76" data-name="Path 76" class="cls-1" d="M194.691,330.328a1.653,1.653,0,1,0,1.168.485A1.662,1.662,0,0,0,194.691,330.328Zm0,0" transform="translate(171.274 -773.337)"/>
    <path id="Path_77" data-name="Path 77" class="cls-1" d="M439.652,73.6a1.652,1.652,0,0,0,1.652-1.652V55.652a1.652,1.652,0,1,0-3.3,0V71.946A1.652,1.652,0,0,0,439.652,73.6Zm0,0" transform="translate(-33.223 -542.654)"/>
    <path id="Path_78" data-name="Path 78" class="cls-1" d="M439.652,196.3a1.652,1.652,0,1,0-1.168-.484A1.665,1.665,0,0,0,439.652,196.3Zm0,0" transform="translate(-33.223 -658.693)"/>
  </g>
</svg>
