<svg id="Group_312" data-name="Group 312" xmlns="http://www.w3.org/2000/svg" viewBox="0 0 90.052 90.052">
  <defs>
    <style>
      .cls-1 {
        fill: #fff;
      }
    </style>
  </defs>
  <g id="Group_292" data-name="Group 292" transform="translate(22.689 22.689)">
    <g id="Group_291" data-name="Group 291">
      <path id="Path_195" data-name="Path 195" class="cls-1" d="M132.246,97.011h-25.8a9.442,9.442,0,0,0-9.432,9.432v25.8a9.442,9.442,0,0,0,9.432,9.432h25.8a9.442,9.442,0,0,0,9.432-9.432v-25.8A9.443,9.443,0,0,0,132.246,97.011Zm7.161,35.235a7.169,7.169,0,0,1-7.161,7.161h-25.8a7.169,7.169,0,0,1-7.161-7.161v-25.8a7.169,7.169,0,0,1,7.161-7.161h25.8a7.169,7.169,0,0,1,7.16,7.161v25.8Z" transform="translate(-97.011 -97.011)"/>
    </g>
  </g>
  <g id="Group_294" data-name="Group 294" transform="translate(33.288 33.288)">
    <g id="Group_293" data-name="Group 293">
      <path id="Path_196" data-name="Path 196" class="cls-1" d="M195.913,183.527a11.747,11.747,0,1,0-5.523,10.633,1.125,1.125,0,0,0,.2-1.75l-.016-.016a1.131,1.131,0,0,0-1.4-.151,9.4,9.4,0,0,1-5.079,1.419,9.473,9.473,0,1,1,8.463-5.039,1.131,1.131,0,0,0,.191,1.333l.017.017a1.122,1.122,0,0,0,1.78-.255A11.663,11.663,0,0,0,195.913,183.527Z" transform="translate(-172.463 -172.464)"/>
    </g>
  </g>
  <g id="Group_296" data-name="Group 296" transform="translate(54.107 28.367)">
    <g id="Group_295" data-name="Group 295" transform="translate(0 0)">
      <circle id="Ellipse_7" data-name="Ellipse 7" class="cls-1" cx="3.028" cy="3.028" r="3.028"/>
    </g>
  </g>
  <path id="Path_197" data-name="Path 197" class="cls-1" d="M76.864,13.188A45.026,45.026,0,1,0,13.188,76.866,45.026,45.026,0,0,0,76.864,13.188Zm-1.99,61.687a42.212,42.212,0,1,1-59.7-59.7,42.212,42.212,0,0,1,59.7,59.7Z"/>
  <path id="Path_198" data-name="Path 198" class="cls-1" d="M161.346,112.529a1.407,1.407,0,0,0-2.185,1.773,36.585,36.585,0,0,1-52.813,50.3,1.407,1.407,0,0,0-1.877,2.1,39.4,39.4,0,0,0,56.875-54.171Z" transform="translate(-85.71 -92.308)"/>
  <path id="Path_199" data-name="Path 199" class="cls-1" d="M34.814,71.4A36.584,36.584,0,0,1,95.786,44.129a1.407,1.407,0,1,0,1.877-2.1A39.4,39.4,0,0,0,40.788,96.2a1.407,1.407,0,0,0,2.185-1.773A36.662,36.662,0,0,1,34.814,71.4Z" transform="translate(-26.372 -26.372)"/>
</svg>
