<svg id="linkedin" xmlns="http://www.w3.org/2000/svg" viewBox="0 0 90.052 90.052">
  <defs>
    <style>
      .cls-1 {
        fill: #fff;
      }
    </style>
  </defs>
  <path id="Path_197" data-name="Path 197" class="cls-1" d="M76.864,13.188A45.026,45.026,0,1,0,13.188,76.866,45.026,45.026,0,0,0,76.864,13.188Zm-1.99,61.687a42.212,42.212,0,1,1-59.7-59.7,42.212,42.212,0,0,1,59.7,59.7Z"/>
  <path id="Path_198" data-name="Path 198" class="cls-1" d="M161.346,112.529a1.407,1.407,0,0,0-2.185,1.773,36.585,36.585,0,0,1-52.813,50.3,1.407,1.407,0,0,0-1.877,2.1,39.4,39.4,0,0,0,56.875-54.171Z" transform="translate(-85.71 -92.308)"/>
  <path id="Path_199" data-name="Path 199" class="cls-1" d="M34.814,71.4A36.584,36.584,0,0,1,95.786,44.129a1.407,1.407,0,1,0,1.877-2.1A39.4,39.4,0,0,0,40.788,96.2a1.407,1.407,0,0,0,2.185-1.773A36.662,36.662,0,0,1,34.814,71.4Z" transform="translate(-26.372 -26.372)"/>
  <path id="Path_200" data-name="Path 200" class="cls-1" d="M235.234,234.082h8.72a1.407,1.407,0,0,0,1.407-1.407V217.635c0-4.222-1.091-7.546-3.243-9.878a10.813,10.813,0,0,0-8.205-3.332,10.1,10.1,0,0,0-6.451,2.047v-.024a1.407,1.407,0,0,0-1.407-1.407h-8.717a1.407,1.407,0,0,0-1.406,1.471c.109,2.4,0,25.919,0,26.157a1.407,1.407,0,0,0,1.407,1.414h8.717a1.407,1.407,0,0,0,1.407-1.407V218.027a4.725,4.725,0,0,1,.185-1.6,3.435,3.435,0,0,1,3.169-2.312c.824,0,3.011,0,3.011,4.526v14.033A1.407,1.407,0,0,0,235.234,234.082Zm-4.418-22.78a6.137,6.137,0,0,0-5.775,4.064,6.934,6.934,0,0,0-.393,2.661v13.241h-5.9c.02-4.547.074-18.549.022-23.413h5.875v2.307a1.407,1.407,0,0,0,2.588.765,7.229,7.229,0,0,1,6.677-3.688c5.487,0,8.635,3.789,8.635,10.4v13.632h-5.906V218.642a8.953,8.953,0,0,0-1.269-5.081A5.24,5.24,0,0,0,230.815,211.3Z" transform="translate(-177.952 -168.47)"/>
  <path id="Path_201" data-name="Path 201" class="cls-1" d="M148.619,141.911A5.921,5.921,0,0,0,142.337,136c-3.672,0-6.337,2.5-6.337,5.94a5.886,5.886,0,0,0,6.222,5.94h.059c3.673,0,6.339-2.5,6.339-5.94C148.619,141.93,148.619,141.92,148.619,141.911Zm-6.339,3.155h-.059a3.1,3.1,0,0,1-3.408-3.126c0-1.869,1.415-3.126,3.522-3.126s3.422,1.2,3.469,3.14C145.8,143.816,144.383,145.065,142.28,145.065Z" transform="translate(-112.08 -112.08)"/>
  <path id="Path_202" data-name="Path 202" class="cls-1" d="M140.326,207.922a1.407,1.407,0,0,0-1.407,1.407v26.227a1.407,1.407,0,0,0,1.407,1.407h8.722a1.407,1.407,0,0,0,1.407-1.407V209.329a1.407,1.407,0,0,0-1.407-1.407Zm7.315,26.228h-5.908V210.736h5.908Z" transform="translate(-114.486 -171.352)"/>
</svg>
