<?xml version="1.0" encoding="utf-8"?>
<!-- Generator: Adobe Illustrator 22.1.0, SVG Export Plug-In . SVG Version: 6.00 Build 0)  -->
<svg version="1.1" id="Camada_1" xmlns="http://www.w3.org/2000/svg" xmlns:xlink="http://www.w3.org/1999/xlink" x="0px" y="0px"
	 viewBox="0 0 100 20" style="enable-background:new 0 0 100 20;" xml:space="preserve">
<style type="text/css">
	.st0{clip-path:url(#SVGID_2_);fill:#FFFFFF;}
	.st1{fill:none;stroke:#F3F901;stroke-width:2;stroke-miterlimit:10;}
</style>
<g>
	<defs>
		<rect id="SVGID_1_" x="-110.1" y="-83.6" width="321.6" height="187.6"/>
	</defs>
	<clipPath id="SVGID_2_">
		<use xlink:href="#SVGID_1_"  style="overflow:visible;"/>
	</clipPath>
	<path class="st0" d="M12.5,11.9c0,2.1-1.3,3.3-3.8,3.3C6.3,15.2,5,14,5,11.9V3.5H2.5v8.4c0,3.6,2.3,5.8,6.3,5.8
		c3.9,0,6.3-2.2,6.3-5.8V3.5h-2.5V11.9z"/>
	<path class="st0" d="M26.7,3.5h-7.1v13.9h2.5v-5.2c0.6-0.3,1.3-0.4,2.3-0.4h2.4c2.5,0,4.2-1.6,4.2-4.1C30.9,5.1,29.2,3.5,26.7,3.5
		 M26.7,9.2h-2.4c-0.7,0-1.5,0-2.3,0.4V6h4.6c1.2,0,1.7,0.5,1.7,1.6C28.4,8.7,27.8,9.2,26.7,9.2"/>
	<path class="st0" d="M41.6,3.5h-7.1v13.9H37v-5.2c0.6-0.3,1.3-0.4,2.3-0.4h2.4c2.5,0,4.2-1.6,4.2-4.1C45.8,5.1,44.2,3.5,41.6,3.5
		 M41.6,9.2h-2.4c-0.7,0-1.5,0-2.3,0.4V6h4.6c1.2,0,1.7,0.5,1.7,1.6C43.3,8.7,42.8,9.2,41.6,9.2"/>
	<path class="st0" d="M54.2,8.8c-2.6,0-2.6-1-2.6-1.3c0-1,1.2-1.9,2.5-1.9c1.6,0,2.6,0.4,4,1.5l0.2,0.2l1.6-1.8l-0.2-0.2
		c-1.5-1.5-3.3-2.2-5.5-2.2c-2.9,0-5.2,2-5.2,4.5c0,2.4,1.8,3.7,5.2,3.7c2.2,0,3.7,0.1,3.7,1.8c0,1.5-1.8,2.1-3.7,2.1
		c-1.5,0-2.8-0.7-3.9-2l-0.2-0.2l-1.8,1.7l0.2,0.2c1.4,1.8,3.5,2.8,5.7,2.8c3.7,0,6.2-1.9,6.2-4.6C60.4,10,58.6,8.8,54.2,8.8"/>
	<rect x="64" y="3.5" class="st0" width="2.5" height="13.9"/>
	<path class="st0" d="M77.1,3.5h-7.2L71,6h1v11.4h5.2c1.9,0,3.2-0.6,4.4-1.9c1.3-1.4,2.1-3.3,2.1-5.1C83.7,6.5,80.8,3.5,77.1,3.5
		 M77.2,14.9h-2.7V6h2.7c2.8,0,4,2.3,4,4.5C81.2,13,79.5,14.9,77.2,14.9"/>
	<path class="st0" d="M90,14.9v-3c0.8-0.4,1.6-0.4,2.2-0.4h3.2V9h-3.2c-0.7,0-1.5,0-2.2,0.3V6h7.4V3.5h-9.9v13.9h10.7v-2.5H90z"/>
</g>
<line class="st1" x1="20" y1="19" x2="37" y2="19"/>
</svg>
